<?xml version="1.0" encoding="utf-8"?>
<!-- Generator: Adobe Illustrator 24.3.0, SVG Export Plug-In . SVG Version: 6.00 Build 0)  -->
<svg version="1.1" id="Layer_1" xmlns="http://www.w3.org/2000/svg" xmlns:xlink="http://www.w3.org/1999/xlink" x="0px" y="0px"
	 viewBox="0 0 240.391 226.414" enable-background="new 0 0 240.391 226.414" xml:space="preserve">
<defs>
	<script  language="JavaScript"></script>
</defs>
<script  type="text/JavaScript">
	<![CDATA[
function notify( ref, type ) {
    var event = document.createEvent("CustomEvent");
    event.initEvent(type,true,true);
    ref.dispatchEvent(event);
}

		
		
		
		
		
		
		
		
		
		
		
		]]>
</script>
<g>
	<g>
		<path fill="#EA8E10" d="M168.026,16.669c-13.312-2.005-30.541-3.215-49.379-3.215c-17.388,0-33.399,1.03-46.229,2.765V40.46H36.65
			v93.13H203.79V40.91h-35.765V16.669L168.026,16.669z"/>
	</g>
	<path fill="#231F20" d="M168.026,47.872V16.768c18.291,3.174,30.136,8.172,30.136,13.814c3.104,0,5.629,2.596,5.629,5.802v11.488
		H168.026z"/>
	<path fill="#231F20" d="M72.415,47.374V16.269C54.124,19.444,42.28,24.442,42.28,30.084c-3.105,0-5.632,2.594-5.632,5.801v11.488
		L72.415,47.374L72.415,47.374z"/>
</g>
<path fill="#F5A909" d="M213.098,132.777c-4.225-4.224-12.777-4.512-19.145-8.106c-25.554-14.445-43.263-19.029-73.162-19.029
	c-0.188,0-0.381,0.002-0.568,0.004c-0.188-0.001-0.385-0.004-0.569-0.004c-29.899,0-47.606,4.584-73.161,19.029
	c-6.367,3.597-14.923,3.886-19.146,8.106c-12.045,12.046-4.393,37.98-4.393,37.98c0,0.695,0.555,1.248,1.241,1.248h96.024h96.027
	c0.688,0,1.244-0.553,1.244-1.248C217.49,170.756,225.145,144.823,213.098,132.777z"/>
<path fill="#F5A909" d="M143.329,14.193c0-2.861-9.302-9.327-23.238-9.327c-13.922,0-22.979,6.466-22.979,9.327"/>
<path fill="#231F20" d="M216.016,172.004h-18.505h-39.844h-75.73H42.691H24.429c-0.729,0-1.311,0.83-1.311,1.861l3.521,8.496
	c0,1.078,0.563,1.967,1.252,1.967h13.404v26.131c0,0.854,0.625,1.549,1.395,1.549h39.246c0.768,0,1.393-0.694,1.393-1.549v-16.332
	h72.936v16.332c0,0.854,0.619,1.549,1.404,1.549h39.844c0.779,0,1.398-0.694,1.398-1.549v-26.131h13.629
	c0.699,0,1.266-0.889,1.266-1.967l3.518-8.496C217.321,172.835,216.729,172.004,216.016,172.004z"/>
<path fill="#12100B" stroke="#4D4947" stroke-width="6" d="M162.682,155.443c0,3.901-3.162,7.063-7.063,7.063H84.823
	c-3.902,0-7.064-3.162-7.064-7.063v-26.56c0-3.907,3.162-7.069,7.064-7.069h70.795c3.901,0,7.063,3.162,7.063,7.069V155.443
	L162.682,155.443z"/>
<path fill="#D0D0D0" stroke="#231F20" stroke-width="4" d="M213.374,147.778c0,8.426-6.817,15.258-15.256,15.258
	c-8.41,0-15.248-6.83-15.248-15.258c0-8.424,6.838-15.255,15.248-15.255C206.557,132.524,213.374,139.354,213.374,147.778z"/>
<path fill="#FFFFFF" stroke="#231F20" stroke-width="2" d="M207.565,147.778c0,5.217-4.222,9.443-9.442,9.443
	c-5.207,0-9.439-4.229-9.439-9.443c0-5.214,4.232-9.441,9.439-9.441C203.343,138.336,207.565,142.564,207.565,147.778z"/>
<path fill="#D0D0D0" stroke="#231F20" stroke-width="4" d="M57.571,147.778c0,8.426-6.817,15.258-15.259,15.258
	c-8.409,0-15.248-6.83-15.248-15.258c0-8.424,6.839-15.255,15.248-15.255C50.751,132.524,57.571,139.354,57.571,147.778z"/>
<path fill="#FFFFFF" stroke="#231F20" stroke-width="2" d="M51.757,147.778c0,5.217-4.221,9.443-9.443,9.443
	c-5.207,0-9.438-4.229-9.438-9.443c0-5.214,4.23-9.441,9.438-9.441C47.538,138.336,51.757,142.564,51.757,147.778z"/>
<line fill="none" stroke="#4D4947" stroke-width="5" x1="79.828" y1="138.493" x2="160.614" y2="138.493"/>
<line fill="none" stroke="#4D4947" stroke-width="5" x1="79.828" y1="130.113" x2="160.614" y2="130.113"/>
<line fill="none" stroke="#4D4947" stroke-width="5" x1="79.828" y1="146.874" x2="160.614" y2="146.874"/>
<line fill="none" stroke="#4D4947" stroke-width="5" x1="79.828" y1="155.254" x2="160.614" y2="155.254"/>
<path fill="#FFFFFF" d="M115.517,91.793c0,0.688-0.555,1.249-1.244,1.249H43.56c-0.688,0-1.246-0.562-1.246-1.249V57.367
	c0-0.688,0.56-1.25,1.246-1.25h70.713c0.689,0,1.244,0.562,1.244,1.25V91.793z"/>
<g>
	<path fill="#231F20" d="M28.247,86.558c0,0.682-0.549,1.243-1.236,1.243H10.199c-0.684,0-1.248-0.562-1.248-1.243V62.517
		c0-0.689,0.564-1.243,1.248-1.243h16.811c0.689,0,1.236,0.554,1.236,1.243V86.558z"/>
	<path fill="none" stroke="#13110C" stroke-width="6" d="M18.601,87.801c0,5.763,7.994,10.417,17.886,10.417"/>
</g>
<path fill="#E30613" stroke="#DD1215" stroke-width="0.2339" d="M173.449,34.682c0,5.866,4.735,10.608,10.596,10.608
	c5.854,0,10.603-4.742,10.603-10.608c0-5.839-4.748-10.596-10.603-10.596C178.186,24.086,173.449,28.843,173.449,34.682z"/>
<path fill="#E30613" stroke="#DD1215" stroke-width="0.2339" d="M44.56,34.682c0,5.866,4.744,10.608,10.584,10.608
	c5.863,0,10.613-4.742,10.613-10.608c0-5.839-4.75-10.596-10.613-10.596C49.304,24.086,44.56,28.843,44.56,34.682z"/>
<g>
	<g>
		<path d="M78.035,28.708h1.61l2.014,5.613c0.253,0.718,0.494,1.459,0.747,2.189h0.064c0.252-0.729,0.473-1.471,0.726-2.189
			l1.99-5.613h1.61v10.505h-1.243V33.43c0-0.915,0.103-2.178,0.17-3.107h-0.064l-0.834,2.396l-1.979,5.435h-0.886l-1.989-5.435
			l-0.832-2.396h-0.064c0.067,0.929,0.17,2.192,0.17,3.107v5.784h-1.211V28.708z"/>
		<path d="M89.49,38.118h2.339v-7.516h-1.86v-0.847c0.93-0.164,1.605-0.411,2.171-0.75h1.005v9.113h2.108v1.096H89.49V38.118z"/>
		<path d="M96.82,38.434c3.069-3.059,4.804-4.897,4.804-6.557c0-1.165-0.634-1.992-1.937-1.992c-0.854,0-1.589,0.541-2.17,1.223
			l-0.765-0.744c0.854-0.938,1.774-1.552,3.097-1.552c1.887,0,3.064,1.191,3.064,3.006c0,1.916-1.759,3.82-4.167,6.351
			c0.553-0.044,1.188-0.087,1.717-0.087h2.951v1.131H96.82V38.434z"/>
		<path d="M107.75,36.392h2.291v0.631h-2.291V36.392z"/>
		<path d="M113.342,32.654h1.947c1.334,0,2.256,0.454,2.256,1.606c0,0.648-0.345,1.225-0.958,1.424v0.04
			c0.784,0.155,1.334,0.672,1.334,1.57c0,1.289-1.021,1.919-2.483,1.919h-2.096V32.654z M115.148,35.445
			c1.115,0,1.578-0.411,1.578-1.076c0-0.766-0.525-1.053-1.54-1.053h-1.009v2.129H115.148z M115.318,38.552
			c1.122,0,1.783-0.404,1.783-1.289c0-0.808-0.636-1.177-1.783-1.177h-1.142v2.466H115.318z"/>
		<path d="M120.57,32.654h0.942l2.219,6.56h-0.884l-1.145-3.664c-0.235-0.733-0.445-1.454-0.656-2.21h-0.04
			c-0.203,0.761-0.413,1.477-0.649,2.21l-1.156,3.664h-0.85L120.57,32.654z M119.518,36.55h3.021v0.666h-3.021V36.55z"/>
		<path d="M124.661,32.654h2.055c1.336,0,2.295,0.479,2.295,1.846c0,1.31-0.959,1.941-2.295,1.941h-1.22v2.772h-0.835V32.654z
			 M126.596,35.764c1.021,0,1.582-0.414,1.582-1.264c0-0.863-0.562-1.169-1.582-1.169h-1.1v2.433H126.596z M126.551,36.212
			l0.654-0.432l2.001,3.433h-0.946L126.551,36.212z"/>
		<path d="M129.97,35.94c0-2.116,1.246-3.406,2.911-3.406c0.796,0,1.42,0.387,1.804,0.809l-0.457,0.543
			c-0.346-0.368-0.779-0.619-1.332-0.619c-1.24,0-2.063,1.016-2.063,2.65c0,1.648,0.787,2.682,2.03,2.682
			c0.626,0,1.102-0.272,1.521-0.737l0.458,0.523c-0.519,0.602-1.161,0.947-2.013,0.947C131.195,39.334,129.97,38.07,129.97,35.94z"
			/>
		<path d="M136.061,32.654h3.781v0.707h-2.946v2.055h2.485v0.707h-2.485v2.385h3.046v0.707h-3.881V32.654z"/>
		<path d="M141.33,32.654h0.835v5.853h2.862v0.707h-3.697V32.654z"/>
		<path d="M145.81,35.91c0-2.101,1.156-3.376,2.804-3.376s2.804,1.279,2.804,3.376c0,2.101-1.156,3.424-2.804,3.424
			S145.81,38.011,145.81,35.91z M150.555,35.91c0-1.634-0.771-2.642-1.941-2.642c-1.172,0-1.941,1.008-1.941,2.642
			c0,1.634,0.77,2.69,1.941,2.69C149.784,38.6,150.555,37.544,150.555,35.91z"/>
		<path d="M152.83,32.654h0.862l2.374,4.124l0.708,1.358h0.04c-0.042-0.662-0.106-1.401-0.106-2.087v-3.395h0.793v6.56h-0.862
			l-2.374-4.127l-0.708-1.354h-0.04c0.042,0.664,0.106,1.363,0.106,2.049v3.433h-0.793V32.654z"/>
		<path d="M160.649,32.654h0.942l2.219,6.56h-0.884l-1.145-3.664c-0.235-0.733-0.446-1.454-0.656-2.21h-0.04
			c-0.203,0.761-0.414,1.477-0.649,2.21l-1.156,3.664h-0.85L160.649,32.654z M159.597,36.55h3.02v0.666h-3.02V36.55z"/>
	</g>
</g>
<text transform="matrix(1 0 0 1 215.269 104.8042)" font-family="'MyriadPro-Regular'" font-size="12px"> </text>
<path fill="#FFFFFF" d="M198.12,91.793c0,0.688-0.556,1.249-1.242,1.249h-70.701c-0.692,0-1.264-0.562-1.264-1.249V57.367
	c0-0.688,0.567-1.25,1.264-1.25h70.701c0.688,0,1.242,0.562,1.242,1.25V91.793z"/>
<g>
	<defs>
		<path id="SVGID_1_" d="M198.12,91.793c0,0.688-0.556,1.249-1.242,1.249h-70.701c-0.692,0-1.264-0.562-1.264-1.249V57.367
			c0-0.688,0.567-1.25,1.264-1.25h70.701c0.688,0,1.242,0.562,1.242,1.25V91.793z"/>
	</defs>
	<clipPath id="SVGID_2_">
		<use xlink:href="#SVGID_1_"  overflow="visible"/>
	</clipPath>
	<g clip-path="url(#SVGID_2_)">
		<defs>
			<rect id="SVGID_3_" x="110.168" y="47.277" width="94.106" height="94.106"/>
		</defs>
		<clipPath id="SVGID_4_">
			<use xlink:href="#SVGID_3_"  overflow="visible"/>
		</clipPath>
		<g clip-path="url(#SVGID_4_)">
			<path fill="#D7CFCC" d="M157.304,123.077c5.697-0.096,11.364,0.22,16.949,1.413c1.32,0.282,2.683,0.602,3.758,1.524
				c0.92,0.788,0.867,1.34-0.246,1.953c-1.587,0.874-3.345,1.313-5.103,1.63c-5.936,1.069-11.936,1.098-17.941,0.945
				c0.091-0.514,0.529-0.453,0.882-0.533c3.05-0.634,3.154-0.822,2.199-3.761c-0.204-0.628-0.597-1.183-0.699-1.843
				C157.032,123.947,156.949,123.475,157.304,123.077z"/>
			<path fill="#070A0A" d="M149.135,130.514c-0.757-0.014-1.441-0.247-2.057-0.684c-0.381-0.487-0.988-0.587-1.488-0.871
				c0.04-0.701,0.724-0.43,1.042-0.698c-0.462-0.449-1.062-0.098-1.566-0.289c-0.459-0.173-1.022-0.059-1.385-0.501
				c0.055-0.372,0.355-0.408,0.637-0.47c0.816-0.052,1.634,0.015,2.451-0.033c0.446-0.027,0.694-0.154,0.622-0.723
				c-0.277-2.2,0.453-2.804,2.635-2.244c-0.119-0.186-0.33-0.15-0.494-0.218c-0.218-0.072-0.421-0.159-0.46-0.423
				c0.175-0.42,0.748-0.35,1.021-0.861c-0.963-0.017-1.831,0.241-2.709,0.166c-0.667-0.043-1.36-0.004-1.84-0.608
				c-0.058-0.195-0.013-0.359,0.152-0.484c0.11-0.052,0.227-0.075,0.349-0.071c0.345,0.048,0.686,0.123,1.026,0.199
				c0.923,0.28,1.768-0.121,2.638-0.307c0.222-0.066,0.444-0.119,0.672-0.035c0.219,0.082,0.348,0.305,0.786,0.43
				c-0.011-1.643,0.066-3.231-0.062-4.82c-0.037-0.46-0.447-0.588-0.853-0.646c-0.174-0.03-0.341-0.079-0.505-0.143
				c-1.083-0.441-2.259-0.393-3.378-0.639c-0.357-0.102-0.722-0.186-1.01-0.443c-0.148-0.047-0.295-0.098-0.444-0.14
				c-2.243-0.633-2.243-0.632-2.091-2.909c0.421-0.015,0.399,0.326,0.476,0.588c0.065,0.393-0.077,0.855,0.378,1.117
				c1.428,0.712,2.958,0.978,4.533,1.029c0.298,0.01,0.704,0.036,0.76-0.364c0.048-0.343-0.331-0.4-0.577-0.473
				c-1.752-0.525-3.348-1.31-4.577-2.708c-0.237-0.27-0.493-0.136-0.753-0.126c-0.245-0.318-0.161-0.653-0.057-0.99
				c-0.074-0.925-0.719-1.64-0.924-2.518c-0.073-0.268,0.106-0.342,0.307-0.4c1.786,0.214,3.508,0.828,5.325,0.851
				c1.124,0.117,2.261,0.452,3.337-0.198c0.532-1.967,0.536-3.999,0.786-5.999c0.087-0.692,0.058-1.405,0.52-1.996
				c0.401-0.147,0.444,0.179,0.554,0.418c0.178,2.097-0.399,4.129-0.547,6.199c-0.052,0.729-0.215,1.45,0.077,2.158
				c0.711,0.678,1.626,0.951,2.524,1.256c0.264,0.096,0.521,0.207,0.736,0.396c0.119,0.137,0.154,0.295,0.119,0.471
				c-0.044,0.108-0.123,0.183-0.229,0.229c-0.354,0.075-0.656-0.096-0.971-0.205c-1.322-0.433-2.529-1.122-3.786-1.699
				c-2.536,0.059-5.045-0.145-7.692-0.865c1.029,2.584,2.902,3.885,5.242,4.657c0.37,0.122,0.758,0.185,1.126,0.315
				c0.404,0.142,0.712,0.402,0.656,0.853c-0.152,1.234,0.577,1.46,1.563,1.442c0.312-0.006,0.623,0.024,0.93,0.091
				c1.987,0.087,3.942-0.099,5.852-0.669c0.431-0.129,0.643-0.47,0.605-0.892c-0.133-1.494,0.199-2.845,1.1-4.058
				c0.163-0.22,0.149-0.518,0.084-0.793c-0.028-0.119-0.03-0.239-0.012-0.359c0.059-0.181,0.176-0.315,0.338-0.413
				c0.294-0.127,0.586-0.137,0.874,0.02c0.111,0.084,0.132,0.187,0.064,0.308c-0.584,1.034-0.968,2.161-1.688,3.145
				c-0.46,0.629-0.057,1.52-0.032,2.285c0.029,0.875-0.3,1.26-1.117,1.441c-0.757,0.168-1.497,0.412-2.278,0.462
				c-0.199,0.154-0.335,0.394-0.609,0.446c-0.188,0.053-0.381,0.07-0.575,0.085c-0.773,0.031-1.549,0.042-2.32,0.007
				c-0.645-0.029-0.926,0.212-0.908,0.866c0.043,1.584-0.072,3.171,0.066,4.752c0.081,0.229,0.28,0.388,0.37,0.612
				c0.009,0.199-0.1,0.317-0.27,0.394c-0.231,0.109-0.623-0.016-0.681,0.325c-0.068,0.398,0.306,0.486,0.592,0.598
				c0.893,0.35,1.848,0.209,2.77,0.341c0.224,0.097,0.46,0.185,0.352,0.51c-1.253,0.748-2.502,0.26-3.751-0.008
				c-1.432,0.163-3.146,1.908-3.414,3.485c-0.023,0.162-0.105,0.296-0.204,0.42c-0.257,0.689,0.33,0.707,0.707,0.865
				c0.363,0.152,0.86-0.007,1.082,0.474C149.595,130.526,149.297,130.398,149.135,130.514z"/>
			<path fill="#170D09" d="M142.361,107.334c-0.093,0.09-0.187,0.179-0.28,0.269c-0.513-0.149-0.694-0.372-0.572-0.999
				c0.365-1.872,0.823-3.695,1.742-5.386c0.196-0.362,0.235-0.809,0.346-1.217c0.808-0.383,0.43-1.234,0.696-1.837
				c0.141-0.318,0.13-0.748,0.161-1.131c0.015-0.224,0.1-0.434,0.124-0.656c0.17-1.298,0.669-2.504,1.032-3.749
				c0.479-0.644,0.729-1.397,1.034-2.127c0.264-0.634,0.225-1.619-0.129-1.716c-1.259-0.348-2.01-1.615-3.346-1.71
				c-1.582-0.112-3.181-0.094-4.715-0.582c-0.698-0.222-1.409-0.441-1.766-1.18c-0.106-0.248,0.052-0.295,0.242-0.32
				c0.587,0.258,1.068,0.741,1.745,0.806c2.182,0.564,4.41,0.586,6.639,0.586c0.314,0.048,0.636,0.085,0.807,0.411
				c-0.034,0.397-0.498,0.313-0.753,0.673c1.278,0.345,1.995,1.112,2.236,2.409c0.155,0.835,1.025,0.768,1.651,0.71
				c1.35-0.125,2.71-0.28,3.927-0.971c1.1-0.249,1.244-1.069,1.194-2.005c0.084-0.213,0.191-0.408,0.416-0.504
				c0.468,1.518,1.294,2.835,2.388,3.96c1.739,1.79,2.285,4.012,2.476,6.386c0.009,0.112,0.015,0.277-0.051,0.335
				c-1.325,1.184-0.395,2.183,0.225,3.239c1.149,1.957,2.049,4.008,2.141,6.327c-0.111,0.383-0.08,0.768-0.019,1.153
				c-0.056,0.21-0.212,0.235-0.394,0.211c-0.01-0.093-0.019-0.186-0.029-0.28c-0.219-0.202-0.263-0.475-0.264-0.747
				c-0.002-2.553-1.038-4.749-2.379-6.83c-0.384-0.596-0.643-1.197-0.514-1.932c-0.079-0.137-0.221,0.096-0.085,0.02
				c0.063-0.035,0.104-0.011,0.093,0.068c-0.129,0.954,0.162,1.941-0.229,2.874c-0.088,0.105-0.2,0.15-0.336,0.134
				c-0.186-0.072-0.319-0.199-0.398-0.381c-0.077-1.045,0.088-2.084,0.104-3.129c0.01-0.649-0.221-0.935-0.866-0.929
				c-0.815,0.007-1.63-0.013-2.445,0.01c-0.534,0.015-0.88,0.259-0.977,0.806c-0.18,0.651,0.309,1.499-0.574,1.939
				c-0.068-0.166-0.136-0.332-0.204-0.497c-0.339-0.774-0.464-1.664-1.313-2.15c-0.212-0.122-0.216-0.497-0.192-0.768
				c0.191-2.204,0.638-4.306,2.276-5.97c0.552-0.561,1.269-0.808,1.925-1.18c-0.76,0.206-1.358,0.715-2.061,1.024
				c-1.43,0.629-2.932,0.728-4.462,0.674c-0.427-0.015-0.857-0.013-1.28,0.06c-0.601,0.118-0.598,0.654-0.728,1.08
				c-0.386,1.266-0.764,2.539-1.007,3.838c-0.42,2.24-1.15,4.346-2.292,6.328c-0.666,1.156-0.872,2.487-1.106,3.789
				C142.203,106.835,142.44,107.055,142.361,107.334z"/>
			<path fill="#18150C" d="M138.813,58.309c0.666,0.295,0.929,1.028,1.516,1.411c1.111-1.854,1.111-1.854,2.342-0.251
				c0.437-0.572,0.489-1.377,1.124-1.843c0.521,0.451,0.619,1.149,1.094,1.717c0.435-0.572,0.849-1.117,1.278-1.68
				c0.611,0.415,0.748,1.117,1.22,1.659c0.437-0.475,0.874-0.95,1.371-1.49c0.511,0.599,0.593,1.35,0.956,2
				c0.444-0.496,0.881-0.984,1.406-1.57c0.342,0.756,0.636,1.407,0.942,2.083c0.637-0.374,0.881-1.2,1.69-1.461
				c0.137,0.654,0.269,1.285,0.412,1.968c0.646-0.181,0.908-0.96,1.683-1.081c0.132,0.655,0.265,1.313,0.41,2.03
				c0.587-0.37,1.139-0.718,1.903-1.2c-0.689,3.148-1.331,6.085-1.974,9.023c-0.18-0.043-0.303-0.153-0.379-0.319
				c0.049-1.911,0.654-3.726,0.972-5.591c0.072-0.42,0.201-0.828,0.252-1.333c-0.41-0.186-0.844,0.509-1.234,0.029
				c-0.298-0.367-0.28-0.871-0.497-1.277c-0.542,0.111-0.735,0.639-1.185,0.785c-0.11,0.024-0.217,0.016-0.321-0.027
				c-0.375-0.49-0.279-1.117-0.483-1.657c-0.008-0.02-0.073-0.042-0.093-0.03c-0.067,0.04-0.118,0.1-0.166,0.168
				c-1.051,1.417-1.13,1.407-1.853-0.221c-0.063-0.141-0.109-0.293-0.278-0.411c-0.616,0.111-0.688,1.161-1.399,0.991
				c-0.648-0.155-0.499-0.994-0.916-1.471c-0.479,0.075-0.619,0.647-1.05,0.8c-0.534,0.171-0.724-0.222-0.965-0.566
				c-0.148-0.211-0.179-0.65-0.63-0.411c-0.077,0.094-0.142,0.19-0.208,0.286c-0.816,1.195-1.018,1.19-1.703-0.044
				c-0.056-0.101-0.092-0.215-0.241-0.314c-0.02-0.01-0.091,0.006-0.134,0.089c-0.852,1.639-0.852,1.64-2.259,0.102
				c-0.357,0.379-0.35,0.953-0.727,1.314c-0.626,0.192-0.916-0.278-1.264-0.637c-0.181-0.279-0.405-0.524-0.623-0.775
				C138.682,58.836,138.614,58.57,138.813,58.309z"/>
			<path fill="#16140D" d="M137.229,80.139c-0.085-1.063-0.502-1.994-1.013-2.924c-0.454-0.827-0.447-1.774-0.172-2.694
				c0.212-0.018,0.307,0.12,0.382,0.285c0.118,0.336,0.086,0.693,0.137,1.039c0.232,1.56,0.506,1.773,2.048,1.667
				c0.779-0.054,1.56-0.039,2.327,0.137c0.637,0.147,0.971-0.098,0.999-0.755c0.07-0.229,0.182-0.427,0.394-0.555
				c0.475,0.042,0.45,0.458,0.562,0.765c0.791,2.156,2.636,3.103,4.882,2.5c1.593-0.498,2.462-1.647,2.646-3.236
				c0.188-1.623-0.563-2.853-1.971-3.675c-2.463-1.133-4.482-0.35-5.548,2.157c-0.105,0.247-0.163,0.521-0.436,0.654
				c-0.198,0.022-0.335-0.079-0.45-0.223c-0.085-0.157-0.107-0.325-0.087-0.5c0.018-0.112,0.047-0.223,0.086-0.332
				c0.551-1.565,0.541-1.588-1.067-2.237c-0.938-0.523-1.86,0.197-2.793,0.034c-0.103-0.083-0.144-0.189-0.126-0.32
				c0.067-0.183,0.187-0.322,0.344-0.433c1.396-0.617,2.759-0.46,4.016,0.32c0.613,0.38,1.053,0.423,1.688,0.039
				c1.811-1.097,3.984-0.934,5.564,0.392c1.644,1.381,1.998,3.197,1.51,5.195c-0.432,1.767-2.252,3.265-4.202,3.393
				c-1.549,0.102-2.894-0.504-3.99-1.619c-0.237-0.254-0.467-0.458-0.864-0.511c-0.961-0.127-1.93-0.167-2.891-0.291
				c-0.981-0.127-1.359,0.308-1.338,1.325c0.324,0.76,1.246,0.778,1.702,1.372c-0.014,0.28-0.213,0.361-0.44,0.413
				c-0.333,0.042-0.631-0.085-0.933-0.188c-0.248-0.097-0.488,0.072-0.736,0.023C137.097,81.004,137.414,80.524,137.229,80.139z"/>
			<path fill="#14181A" d="M147.022,128.518c-0.394,0.417-1.004-0.017-1.409,0.358c-0.899,0.687-1.731,0-2.59-0.125
				c-0.748-0.185-1.518-0.311-2.24-0.57c-0.916-0.328-1.096-0.979-0.61-1.836c0.932-1.643,2.314-2.771,4.029-3.519
				c0.173-0.203,0.132-0.652,0.598-0.521c1.244,0.835,2.704,0.573,4.069,0.796c0.12,0.052,0.207,0.138,0.262,0.256
				c0.169,0.067,0.339,0.134,0.508,0.201c-0.958,0.577-2.022,0.505-3.067,0.458c-0.543-0.024-1.073-0.204-1.582-0.406
				c-1.042-0.105-3.424,1.383-3.701,2.323c-0.101,0.341,0.194,0.355,0.393,0.444c0.626,0.174,1.255,0.305,1.901,0.373
				c0.352,0.037,0.799-0.016,0.885,0.512c-0.25,0.043-0.529-0.017-0.732,0.199c-0.921,0.609-1.776-0.154-2.686-0.043
				c1.27,0.542,2.616,0.687,3.994,0.734C145.712,128.174,146.457,127.899,147.022,128.518z"/>
			<path fill="#151C1E" d="M155.228,124.901c-0.175-0.076-0.35-0.152-0.526-0.228c0.047-0.376,0.356-0.419,0.633-0.504
				c0.426-0.112,0.904-0.127,1.315-0.77c-1.413,0.111-2.642,0.273-3.873,0.172c-0.285-0.071-0.615-0.085-0.627-0.498
				c0.089-0.068,0.177-0.136,0.266-0.203c0.55-0.422,1.158-0.03,1.73-0.124c0.498-0.019,0.992-0.05,1.351-0.469
				c0.295-0.581-0.12-1.345,0.476-1.846c0.737,0.491-0.061,1.36,0.469,1.901c0.467,0.041,0.593,0.473,0.859,0.745
				c-0.16,1.1,0.405,2.009,0.76,2.981c0.224,0.614,0.302,1.28,0.48,1.913c0.3,1.071-0.027,1.732-1.165,1.935
				c-0.57,0.102-1.132,0.247-1.698,0.372c-0.159-0.119-0.476,0.023-0.507-0.307c0.35-0.559,0.99-0.34,1.475-0.542
				c0.391-0.163,0.832-0.217,1.226-0.641c-0.702,0.029-1.27,0.387-1.89,0.286c-0.23-0.06-0.428-0.168-0.566-0.37
				c-0.028-0.199,0.077-0.322,0.237-0.414c0.105-0.047,0.215-0.08,0.328-0.105c1.924-0.442,2.099-0.937,1.121-2.653
				c-0.437-0.767-1.019-0.486-1.601-0.457C155.389,125.052,155.298,124.992,155.228,124.901z"/>
			<path fill="#1B1A17" d="M136.267,74.825c-0.074-0.101-0.149-0.203-0.223-0.304c0.917-1.335,0.804-3.155,2.066-4.346
				c0.197-0.186,0.154-0.659,0.17-1.002c0.173-3.563,0.485-7.122,0.323-10.695c-0.003-0.072,0.035-0.147,0.054-0.22
				c0.052,0.017,0.104,0.034,0.157,0.051c0.005,0.28-0.032,0.575,0.274,0.744c0.04,0.112,0.058,0.228,0.054,0.348
				c-0.028,0.705-0.093,1.413,0.141,2.102c0.152,2.864-0.187,5.703-0.443,8.546c-0.032,0.359-0.225,0.66-0.472,0.913
				c-0.29,0.298-0.489,0.605-0.26,1.028c0.009,0.073,0.012,0.146,0.01,0.22C137.581,73.139,137,74.035,136.267,74.825z"/>
			<path fill="#15120A" d="M155.877,71.922c-0.278,2.066-0.564,4.131-0.828,6.2c-0.075,0.589-0.185,1.109,0.547,1.555
				c0.821,0.501,0.7,1.467,0.517,2.329c-0.201,0.027-0.292-0.101-0.365-0.256c-0.182-0.649-0.078-1.452-0.939-1.732
				c-0.336-0.05-0.66,0.067-0.992,0.072c-0.654-0.122-0.57-0.451-0.158-0.746c0.653-0.468,0.689-1.132,0.791-1.841
				c0.291-2.019,0.291-4.09,1.012-6.037C155.921,71.325,155.744,71.765,155.877,71.922z"/>
			<path fill="#403E33" d="M144.639,122.363c-0.145,0.154-0.291,0.308-0.436,0.462c0.037-0.701,0.018-1.423,0.896-1.689
				c0.423-0.128,0.269-0.512,0.27-0.792c0.008-1.749-0.005-3.498-0.011-5.248c0.318,0.051,0.672-0.136,0.957,0.143
				c-0.013,0.113-0.039,0.222-0.076,0.33c-0.101,0.349-0.067,0.706-0.071,1.063c0.007,1.233,0.011,2.464,0.002,3.695
				c-0.003,0.458,0.041,0.933-0.311,1.31c-0.085,0.086-0.169,0.173-0.254,0.259C144.969,121.403,145.053,122.399,144.639,122.363z"
				/>
			<path fill="#EF9E7E" d="M145.611,92.629c0.454,0.597-0.14,1.048-0.232,1.566c-0.141,0.792-0.354,1.571-0.536,2.355
				c-0.897,0.091-1.15-0.142-0.907-0.932c0.338-1.099,0.792-2.148,1.686-2.936L145.611,92.629z"/>
			<path fill="#3F3A24" d="M156.445,122.332c-0.682-0.481,0.032-1.325-0.482-1.849c-0.595-1.405-0.535-2.812-0.015-4.221
				c0.166-0.07,0.331-0.14,0.497-0.209C156.405,118.146,156.291,120.239,156.445,122.332z"/>
			<path fill="#1C1910" d="M155.892,81.712c0.074,0.098,0.147,0.196,0.221,0.294c-0.031,0.366-0.174,0.792-0.465,0.891
				c-1.479,0.506-1.029,1.63-0.932,2.654c0.014,0.153-0.005,0.309-0.009,0.464c-0.125,0.159,0.025,0.507-0.343,0.5
				c-0.3-0.174-0.331-0.474-0.368-0.772c-0.019-0.293-0.014-0.588-0.017-0.881c0.038-0.597-0.054-1.14-0.483-1.613
				c-0.32-0.353-0.191-0.787,0.269-0.674C154.741,82.813,155.232,82.106,155.892,81.712z"/>
			<path fill="#D9D3D1" d="M143.023,128.751c0.863,0.042,1.727,0.084,2.59,0.125c0.585,0.169,1.566-0.268,1.464,0.954
				C145.683,129.632,144.271,129.5,143.023,128.751z"/>
			<path fill="#32302A" d="M137.229,80.139c0.396,0.303,0.013,0.846,0.357,1.165c0.449,0.391,0.233,0.877,0.107,1.285
				c-0.255,0.83-0.214,1.758-0.795,2.482c-0.07,0.081-0.139,0.161-0.209,0.242c-0.439-0.446-0.212-0.928-0.079-1.407
				C136.951,82.673,137.317,81.443,137.229,80.139z"/>
			<path d="M149.135,130.514c0.163-0.065,0.326-0.129,0.489-0.194c0.639-0.525,1.403-0.309,2.115-0.323
				c0.808-0.015,1.617-0.089,2.427-0.011c0.234,0.074,0.34,0.241,0.344,0.48C152.721,130.715,150.93,130.79,149.135,130.514z"/>
			<path fill="#46352D" d="M145.621,92.682c-0.593,0.868-1.114,1.765-1.498,2.758c-0.317,0.821-0.044,1.079,0.719,1.109
				c-0.062,0.155-0.124,0.308-0.186,0.462c-0.189,0.09-0.003,0.842-0.545,0.309c-0.929-1.513-0.018-2.719,0.663-3.961
				C144.961,93.018,145.187,92.717,145.621,92.682z"/>
			<path fill="#B39A2C" d="M144.112,97.32c0.348,0.192,0.271-0.368,0.545-0.309c0.09,0.934-0.32,1.784-0.466,2.678
				c-0.039,0.24-0.171,0.643-0.595,0.313C143.977,99.147,143.943,98.214,144.112,97.32z"/>
			<path fill="#30373C" d="M143.004,110.12c0.142,0.301-0.068,0.683,0.222,0.949c0.052,0.044,0.103,0.088,0.155,0.132
				c0.212,0.592,0.407,1.181-0.299,1.601c-0.123-0.239,0.007-0.565-0.258-0.755C142.781,111.395,142.779,110.747,143.004,110.12z"/>
			<path fill="#020200" d="M155.987,69.355c0.067,0.09,0.133,0.179,0.2,0.269c-0.018,0.476,0.087,0.974-0.243,1.396
				c-0.19-0.05-0.316-0.17-0.383-0.354C155.527,70.172,155.542,69.693,155.987,69.355z"/>
			<path fill="#020100" d="M154.496,86.515c0.07-0.167,0.141-0.333,0.211-0.5c0.029,0.365,0.058,0.729,0.087,1.094
				c-0.071,0.177-0.141,0.354-0.212,0.532C154.18,87.294,154.208,86.914,154.496,86.515z"/>
			<path d="M154.51,130.465c-0.074-0.093-0.148-0.185-0.221-0.278c0.278-0.383,0.596-0.355,0.937-0.092
				c0.151,0.061,0.303,0.122,0.454,0.183c-0.32,0.088-0.639,0.175-0.959,0.263C154.647,130.526,154.577,130.5,154.51,130.465z"/>
			<path fill="#070A0A" d="M161.954,108.509c-0.224-0.388-0.236-0.773,0.019-1.153C162.054,107.742,162.09,108.127,161.954,108.509z
				"/>
			<path d="M155.76,70.758c0.061,0.087,0.122,0.174,0.183,0.261c-0.022,0.301-0.044,0.602-0.066,0.902
				c-0.063-0.16-0.127-0.32-0.19-0.48C155.501,71.192,155.491,70.96,155.76,70.758z"/>
			<path fill="#F04E28" d="M142.361,107.334c-0.104-0.203-0.466-0.141-0.464-0.453c0.227-0.228,0.372-0.502,0.412-0.819
				c0.231-1.855,1.004-3.505,1.999-5.046c0.695-1.077,1.062-2.228,1.208-3.483c0.225-1.933,0.778-3.795,1.261-5.673
				c0.072-0.279,0.18-0.508,0.407-0.68c1.435-0.043,2.875,0.18,4.303-0.2c1.218-0.324,2.39-0.702,3.31-1.618
				c0.186-0.185,0.389-0.474,0.666-0.16c0.172,0.196,0.341,0.456,0.369,0.704c0.051,0.45-0.352,0.299-0.586,0.324
				c-1.196,0.13-1.997,0.857-2.592,1.805c-0.955,1.521-1.267,3.245-1.411,5.006c-0.022,0.272-0.059,0.671,0.237,0.713
				c1.442,0.204,0.944,1.262,0.977,2.091c-0.329,2.809-0.658,5.619-0.987,8.428c-1.244,0.239-2.493,0.132-3.741,0.061
				C145.888,108.281,144.102,107.926,142.361,107.334z"/>
			<path fill="#009CDB" d="M154.893,110.631c0.27,0.088,0.54,0.176,0.809,0.264c-0.162,1.138-1.006,1.699-1.916,2.134
				c-0.616,0.294-0.952,0.523-0.309,1.107c0.084,0.077,0.14,0.188,0.184,0.295c0.175,0.423,0.619,0.914,0.354,1.281
				c-0.295,0.409-0.905,0.225-1.387,0.087c-0.468-0.005-0.936-0.015-1.404-0.015c-1.015-0.001-1.648-0.339-1.347-1.51
				c0.164-0.639-0.191-0.744-0.73-0.874c-3.051-0.736-5.42-2.315-6.553-5.634c2.862,0.822,5.669,1.052,8.501,1.012
				c0.026,0.24-0.099,0.422-0.231,0.601c-0.624,0.94-0.039,1.886-0.049,2.632c0.056,0.352,0.14,0.218,0.096,0.171
				c-0.202-0.214-0.117-0.507-0.111-0.777c0.356-2.096,0.353-2.089,2.32-1.317C153.696,110.312,154.271,110.552,154.893,110.631z"/>
			<path fill="#FDD31D" d="M154.987,110.129c-0.941-0.205-1.819-0.562-2.623-1.096c-0.543-1.311-0.038-2.627,0.103-3.904
				c0.255-2.307,0.476-4.613,0.599-6.93c0.78-0.547,1.645-0.396,2.481-0.247c0.752,0.133,0.907,0.758,0.96,1.419
				c0.108,1.333-0.138,2.646-0.28,3.957c-0.202,1.857-0.447,3.712-0.678,5.566C155.491,109.359,155.413,109.825,154.987,110.129z"/>
			<path fill="#0094C7" d="M152.627,115.799c0.388,0,0.775,0,1.3,0c-0.382-0.767-0.414-1.545-1.181-1.993
				c-0.517-0.302-0.177-0.624,0.193-0.72c1.254-0.326,2.06-1.187,2.763-2.191l-0.023-0.104c0.14-0.081,0.29-0.11,0.45-0.09
				c0.24,0.036,0.463,0.139,0.818,0.284c-0.236-0.267-0.348-0.428-0.366-0.638c0.02-1.494,0.184-1.684,1.667-1.675
				c0.718,0.004,1.48-0.198,2.137,0.294c0.22,0.04,0.537,0.015,0.443,0.369c-0.089,0.334-0.194,0.711-0.417,0.954
				c-0.984,1.073-1.128,2.346-0.951,3.695c0.101,0.773-0.228,1.145-0.952,1.303C156.568,115.71,154.627,116.083,152.627,115.799z"/>
			<path fill="#DFAB27" d="M154.987,110.129c0.457-3.448,1.006-6.886,1.167-10.365c0.072-1.557,0.013-1.567-1.535-1.559
				c-0.504,0.003-1.007,0.054-1.511,0.084c-0.036-0.035-0.072-0.07-0.108-0.105c-0.004-0.581,0.166-0.927,0.864-0.946
				c1.053-0.029,2.101-0.062,3.155,0.013c0.658,0.047,0.976,0.193,0.861,0.983c-0.168,1.152-0.174,2.328-0.248,3.494
				c0.121,0.366,0.318,0.725,0.243,1.123c-0.34,1.824-0.373,3.695-0.829,5.496c-0.133,0.524-0.314,1.018-0.309,1.576
				c0.008,0.825-0.41,0.919-1.042,0.51C155.459,110.33,155.223,110.229,154.987,110.129z"/>
			<path fill="#009CDB" d="M155.698,128.459c-0.085,0.073-0.169,0.146-0.254,0.218c-0.338,0.42-0.858,0.377-1.296,0.427
				c-1.975,0.223-3.955,0.357-5.886-0.311c-0.381-0.434-0.081-0.8,0.134-1.161c0.731-1.228,1.707-2.216,2.928-2.961
				c1.29,0.274,2.581,0.533,3.905,0.23c0.074,0.024,0.15,0.043,0.226,0.059C155.609,126.121,155.959,127.269,155.698,128.459z"/>
			<path fill="#009CDA" d="M144.721,123.253c1.62,0.427,3.24,0.843,4.919,0.304c0.232-0.004,0.503-0.086,0.688,0.006
				c0.279,0.139,0.48,0.449,0.277,0.76c-0.171,0.263-0.433,0.414-0.764,0.104c-0.63-0.592-1.331-0.645-1.971-0.044
				c-0.602,0.566-0.552,1.229-0.115,1.895c0.489,0.746,0.066,0.977-0.607,0.993c-0.892,0.021-1.786-0.004-2.679-0.009
				c-1.018-0.365-2.156-0.198-3.139-0.714c-0.212-0.455,0.113-0.729,0.363-1.011C142.548,124.574,143.53,123.774,144.721,123.253z"
				/>
			<path fill="#D5342C" d="M157.856,102.027c0.055-0.028,0.11-0.054,0.167-0.078c0.351-0.255-0.149-0.981,0.501-1.015
				c0.559-0.03,0.749,0.488,0.934,0.915c0.555,1.284,1.146,2.552,1.463,3.93c0.221,0.962,0.421,1.898-0.241,2.773
				c-0.097,0.068-0.194,0.135-0.29,0.203c-0.923,0.224-1.844,0.117-2.768-0.004c-0.483-0.063-0.724-0.312-0.623-0.78
				C157.421,106.009,157.424,103.987,157.856,102.027z"/>
			<path fill="#0199D4" d="M143.226,111.069c0.17-0.103-0.149-1.01,0.453-0.348c1.464,1.611,3.257,2.593,5.347,3.094
				c0.316,0.076,0.602,0.172,0.481,0.619c-0.09,0.332-0.063,0.706-0.587,0.675c-1.892-0.11-3.786-0.196-5.496-1.159
				c-0.389-0.937,0.207-1.914-0.115-2.854L143.226,111.069z"/>
			<path fill="#E1AD27" d="M146.081,115.322c0.078-0.027,0.156-0.055,0.234-0.082c0.812,0.079,1.624,0.168,2.438,0.232
				c0.451,0.036,0.831,0.181,1.104,0.555c0.48,1.873,0.516,3.744-0.029,5.611c-0.919,0.351-1.842,0.663-2.832,0.266
				c0.74-0.409,0.933-1.056,0.869-1.859c-0.049-0.617-0.046-1.243-0.001-1.86c0.072-1.001,0.002-1.857-1.245-2.085
				C146.289,116.04,146.002,115.759,146.081,115.322z"/>
			<path fill="#E0AB28" d="M155.747,122.627c-0.444,0.302-0.94,0.399-1.468,0.371c-0.948-1.378-0.49-2.887-0.387-4.355
				c0.071-1.017-0.286-1.477-1.256-1.465c-0.246,0.003-0.326,0.157-0.354,0.369c-0.112,1.636,0.173,3.281-0.168,4.905
				c-0.045,0.054-0.09,0.107-0.135,0.161c-0.437-1.994-0.122-4.01-0.16-6.015c-0.007-0.389,0.327-0.367,0.602-0.365
				c1.014,0.007,2.027,0.016,3.041,0.025c0.398,0.564,0.207,1.208,0.227,1.816C155.739,119.591,155.635,121.111,155.747,122.627z"/>
			<path fill="#FCD11D" d="M146.081,115.322c0.273,0.499,0.743,0.713,1.26,0.687c0.799-0.041,0.87,0.397,0.856,1.02
				c-0.027,1.204-0.075,2.414,0.014,3.613c0.072,0.971-0.262,1.367-1.214,1.263c-0.329-0.011-0.671,0.034-0.937-0.232
				c-0.051-1.808,0.223-3.627-0.177-5.424C145.911,115.931,145.645,115.551,146.081,115.322z"/>
			<path fill="#FCD11D" d="M152.001,117.221c0.022-0.187,0.044-0.375,0.066-0.562c0.644,0.178,1.316,0.291,1.924,0.553
				c0.491,0.212,0.344,0.775,0.265,1.159c-0.318,1.55-0.265,3.086,0.022,4.627c-0.634,0.158-1.24-0.102-1.861-0.128
				c-0.147-0.086-0.293-0.172-0.44-0.257c0,0,0.046-0.045,0.046-0.045C152.297,120.785,152.257,119.003,152.001,117.221z"/>
			<path fill="#FAFAFA" d="M155.226,130.096c-0.312,0.031-0.624,0.061-0.937,0.092c-1.551,0.187-3.108,0.147-4.665,0.132
				c-0.584-0.154-1.2-0.238-1.743-0.482c-0.465-0.209-0.972-0.578-0.232-1.116c2.748,0.601,5.511,0.459,8.277,0.162
				c0.521-0.127,1.036-0.29,1.564-0.364c0.237-0.033,0.59-0.42,0.746,0.059c0.127,0.388-0.112,0.676-0.493,0.786
				c-0.665,0.192-1.338,0.354-2.006,0.537C155.563,129.95,155.396,130.03,155.226,130.096z"/>
			<path fill="#E24A28" d="M160.68,108.551c-0.086-0.15-0.69-0.015-0.354-0.229c0.789-0.502,0.555-1.149,0.455-1.747
				c-0.29-1.731-1.051-3.311-1.725-4.915c-0.1-0.239-0.192-0.584-0.528-0.529c-0.426,0.07-0.108,0.679-0.504,0.818
				c0.015-1.145,0.007-2.293,0.387-3.422c-0.02,1.093,0.62,1.89,1.115,2.763c1.254,2.213,2.342,4.486,2.006,7.15
				C161.248,108.478,160.964,108.514,160.68,108.551z"/>
			<path fill="#FCFCFC" d="M150.339,116.052c0.884-0.079,1.213,0.263,1.155,1.199c-0.09,1.435-0.012,2.881-0.032,4.321
				c-0.004,0.324,0.198,0.797-0.21,0.944c-0.558,0.2-0.34-0.471-0.582-0.665c-0.15-0.12-0.263-0.285-0.393-0.429
				C149.976,119.628,149.853,117.836,150.339,116.052z"/>
			<path fill="#F8F8F8" d="M147.022,128.518c-1.862,0.031-3.718-0.009-5.526-0.521c-0.33-0.094-0.662-0.222-0.953-0.4
				c-0.189-0.116-0.338-0.373-0.24-0.608c0.118-0.283,0.391-0.18,0.602-0.111c0.922,0.303,1.862,0.514,2.832,0.583
				c0.962,0.081,1.932,0.282,2.883,0.213C147.75,127.591,147.368,128.011,147.022,128.518z"/>
			<path fill="#F6F6F6" d="M155.452,124.432c-0.25,0.08-0.5,0.161-0.75,0.241c-0.965,0.01-1.925-0.022-2.861-0.304
				c-0.518-0.157-0.981-0.376-0.818-1.028c0.188-0.757,0.737-0.232,1.128-0.268c0.244,0.089,0.487,0.177,0.731,0.266
				c0.493,0.156,1,0.066,1.499,0.07C155.078,123.415,155.499,123.668,155.452,124.432z"/>
			<path fill="#F5E093" d="M153,98.183c0.021,0.05,0.057,0.084,0.108,0.104c0.188,2.915-0.282,5.783-0.598,8.662
				c-0.076,0.691-0.099,1.389-0.146,2.083c-0.714-0.167-0.453-0.727-0.417-1.141c0.221-2.518,0.473-5.033,0.714-7.55
				C152.988,99.656,152.787,98.887,153,98.183z"/>
			<path fill="#0E0802" d="M157.856,102.027c-0.035,1.856-0.258,3.7-0.633,5.506c-0.188,0.905,0.131,1.092,0.854,1.129
				c0.77,0.04,1.541,0.062,2.312,0.092c-0.001,0.071-0.002,0.141-0.004,0.211c-0.577,0.123-1.155,0.11-1.742,0.066
				c-1.838-0.137-1.839-0.127-1.713,1.808c-0.262,0.207-0.537,0.164-0.817,0.044c-0.145-0.031-0.289-0.062-0.434-0.093
				c0.005-0.12,0.011-0.24,0.016-0.36c0.479,0.085,0.852,0.162,0.932-0.574c0.293-2.715,0.663-5.421,1.005-8.13
				C157.706,101.827,157.781,101.927,157.856,102.027z"/>
			<path fill="#FBFBFB" d="M144.639,122.363c0.114-0.587,0.287-1.05,0.966-0.466c0.56,0.419,1.233,0.414,1.881,0.505
				c0.516,0.225,1.435-0.186,1.408,0.893C147.374,123.447,145.858,123.581,144.639,122.363z"/>
			<path fill="#0E1619" d="M155.926,128.884c-2.772,0.604-5.535,0.73-8.277-0.162c0.101-0.068,0.202-0.136,0.303-0.204
				c0.064-0.114,0.147-0.129,0.247-0.046c1.924,0.624,3.891,0.499,5.86,0.343c0.462-0.037,0.923-0.092,1.384-0.138
				C155.604,128.746,155.765,128.815,155.926,128.884z"/>
			<path fill="#86C0E6" d="M148.199,128.473c-0.082,0.015-0.165,0.03-0.247,0.046c-0.132-0.08-0.277-0.155-0.241-0.346
				c0.239-1.258,2.275-3.229,3.613-3.501C150.25,125.911,148.947,126.964,148.199,128.473z"/>
			<path fill="#F8CB1F" d="M155.747,122.627c-0.426-0.31-0.276-0.769-0.279-1.173c-0.014-1.732-0.006-3.464-0.006-5.196
				c0.163-0.099,0.325-0.104,0.486,0.004c0.005,1.407,0.01,2.814,0.015,4.221C155.791,121.188,156.128,121.944,155.747,122.627z"/>
			<path fill="#3F3A23" d="M150.339,116.052c-0.021,1.79-0.042,3.58-0.063,5.37c-0.15,0.072-0.3,0.144-0.45,0.216
				c0.01-1.871,0.02-3.741,0.029-5.611C150.018,116.035,150.179,116.043,150.339,116.052z"/>
			<path fill="#8ECCF2" d="M154.893,110.631c-0.926,0.083-1.743-0.287-2.511-0.708c-0.844-0.463-1.175-0.298-1.176,0.666
				c0,0.375-0.136,0.749-0.211,1.124c-0.768-0.776-0.487-1.653-0.244-2.526c0.114-0.137,0.228-0.273,0.343-0.41
				C152.268,109.585,153.602,110.062,154.893,110.631z"/>
			<path fill="#FEEE92" d="M145.882,116.248c0.452,0.408,0.461,0.958,0.415,1.487c-0.114,1.311,0.308,2.654-0.238,3.936
				c0,0-0.104,0.003-0.104,0.003s-0.097-0.037-0.097-0.037C145.866,119.841,145.874,118.044,145.882,116.248z"/>
			<path fill="#DAD7D5" d="M148.894,123.296c-0.203-0.717-0.951-0.577-1.408-0.893c0.726-0.076,1.48,0.062,2.174-0.27
				c0.306-0.146,0.626-0.398,0.815,0.137c0.156,0.443,0.069,0.753-0.447,0.855c-0.302,0.06-0.597,0.154-0.895,0.232
				C149.053,123.336,148.973,123.316,148.894,123.296z"/>
			<path fill="#F2F2F2" d="M148.453,126.347c-0.519-0.342-0.747-0.68-0.662-1.082c0.124-0.586,0.507-0.969,1.156-0.881
				c0.334,0.045,0.833,0.231,0.642,0.611C149.327,125.518,148.826,125.922,148.453,126.347z"/>
			<path fill="#94D3FA" d="M143.308,111.095c0.35,0.939,0.247,1.896,0.115,2.854c-0.599-0.238-0.253-0.757-0.342-1.147
				C143.335,112.257,143.202,111.66,143.308,111.095z"/>
			<path fill="#170D09" d="M147.73,108.334c1.247-0.02,2.494-0.041,3.741-0.061C150.231,108.704,148.982,108.619,147.73,108.334z"/>
			<path fill="#FDD31D" d="M139.508,81.086c-0.733-0.241-1.562-0.328-1.902-1.194c-0.128-1.041,0.528-1.511,1.373-1.418
				c1.343,0.146,2.716,0.05,4.033,0.431c2.768,2.868,6.616,1.554,7.746-1.155c0.739-1.772,0.235-3.978-1.219-5.226
				c-1.476-1.267-3.714-1.497-5.319-0.407c-0.745,0.506-1.184,0.719-1.988-0.006c-1.1-0.992-2.518-0.848-3.876-0.431
				c0.78-2.043,0.961-8.485,0.887-10.427c-0.022-0.573-0.192-1.164,0.29-1.644c0.42,0.206,0.443,0.949,1.11,0.821
				c0.425-0.459,0.494-1.083,0.753-1.619c0.769,0.244,0.775,1.116,1.33,1.603c0.516-0.574,0.43-1.472,1.092-2.081
				c0.337,0.66,0.64,1.255,0.985,1.931c0.385-0.533,0.72-0.997,1.055-1.462c0.492-0.047,0.475,0.413,0.649,0.67
				c0.242,0.358,0.433,0.766,0.985,0.536c0.347-0.46,0.694-0.919,1.08-1.43c0.597,0.614,0.565,1.408,0.994,2.141
				c0.467-0.564,0.896-1.083,1.406-1.7c0.363,0.799,0.693,1.527,1.044,2.3c0.308-0.399,0.585-0.759,0.863-1.119
				c0.872,0.208,0.414,1.232,0.993,1.62c0.051-0.004,0.101-0.002,0.151,0.006c0.782,0.165,0.502,0.769,0.454,1.213
				c-0.332,3.066-0.791,6.118-1.113,9.185c-0.375,3.568-0.889,7.122-0.856,10.729c0.017,1.862,0.329,3.646,0.812,5.423
				c0.132,0.484,0.342,0.971,0.072,1.477c-1.696,0.897-3.498,1.163-5.393,0.949c-0.543-0.061-0.814-0.249-0.818-0.849
				c-0.008-1.093-0.318-1.984-1.65-2.068c-0.397-0.025-0.714-0.269-0.883-0.744c0.444-0.274,0.961-0.122,1.42-0.235
				c1.433-0.517,3.022-0.425,4.486-1.255c-1.733,0.8-3.463,1.051-5.24,1.026c-2.079,0.019-4.162,0.093-6.203-0.422
				c-0.257-0.065-0.501-0.18-0.751-0.272c-0.945-0.48-1.167-1.288-0.914-2.229c0.237-0.881,0.405-1.782,0.711-2.644
				c0.285,0.074,0.571,0.147,0.856,0.221c0.127,0.083,0.266,0.119,0.413,0.075c0.151-0.045,0.314-0.039,0.456-0.115
				C139.73,81.27,139.611,81.192,139.508,81.086z"/>
			<path fill="#F2C421" d="M153.391,89.852c-1.258-3.273-1.475-6.699-1.174-10.122c0.338-3.852,0.697-7.709,1.313-11.535
				c0.313-1.948,0.503-3.916,0.743-5.875c0.025-0.208-0.077-0.375-0.25-0.495c0.401-0.522,0.851-0.992,1.454-1.431
				c0.384,0.643,0.226,1.378,0.53,2.075c0.463-0.293,0.927-0.587,1.489-0.943c-0.518,2.689-1.013,5.259-1.508,7.828
				c-0.076,0.468-0.151,0.936-0.227,1.404c-0.024,0.228-0.049,0.456-0.073,0.684c-0.51,2.081-0.688,4.212-0.951,6.33
				c-0.092,0.745,0.036,1.607-1.023,1.817c-0.108,0.021-0.32,0.16-0.106,0.306c0.105,0.071,0.297,0.015,0.45,0.017
				c0.244,0.081,0.348,0.258,0.35,0.505c-0.131,0.328-0.258,0.655,0.168,0.882c0.255-0.266,0.337-0.581,0.219-0.946
				c-0.022-0.23,0.011-0.442,0.196-0.604c0.938,0.361,0.86,1.19,0.903,1.963c-0.68,1.359-0.737,1.384-2.531,1.105
				c0.996,0.412,0.949,1.203,0.872,2.006c-0.293,0.324-0.146,0.633,0.032,0.94c0.077,0.25,0.154,0.501,0.231,0.751
				c0.029,0.375,0.057,0.751,0.086,1.126C154.892,88.759,154.466,89.48,153.391,89.852z"/>
			<path fill="#EF4D28" d="M158.984,97.506c-1.69-1.026-3.545-0.711-5.365-0.644c-0.418,0.015-0.9,0.035-1.235,0.243
				c-0.908,0.562-0.723-0.026-0.652-0.547c0.347-0.501,0.373-1.082,0.478-1.66c0.216-1.194,0.636-2.329,1.374-3.319
				c0.773-0.93,1.693-1.177,2.79-0.599c-0.059,0.625-0.728,0.28-0.999,0.648c0.565,1.431,1.385,2.844,0.876,4.497
				c0.257,0.201,0.538,0.094,0.797,0.131c0.787,0.113,1.48,0.086,1.59-0.948c0.011-0.103,0.16-0.149,0.285-0.134
				c0.015,0.772,0.653,1.532,0.042,2.315L158.984,97.506z"/>
			<path fill="#D5342C" d="M158.922,95.175c0.027,1.359-0.701,1.65-1.894,1.398c-0.442-0.093-0.92-0.015-1.491-0.015
				c1.41-2.039-0.179-3.576-0.611-5.27c0.45-0.312,1.034,0.089,1.448-0.307C157.859,91.993,158.537,93.495,158.922,95.175z"/>
			<path fill="#F6A583" d="M147.184,91.179c-0.633,2.602-1.27,5.205-1.583,7.87c-0.092,0.786-0.582,1.355-0.96,1.975
				c-1.001,1.641-1.88,3.322-2.076,5.271c-0.045,0.444-0.227,0.637-0.667,0.586c0.28-2.265,0.953-4.392,2.226-6.305
				c0.695-1.044,0.696-2.289,0.997-3.444c0.449-1.727,0.812-3.476,1.41-5.162C146.651,91.627,146.604,91.144,147.184,91.179z"/>
			<path fill="#F9E498" d="M138.156,81.109c0.265,0.75-0.013,1.448-0.274,2.116c-0.406,1.039-0.321,1.948,0.477,2.757
				c-0.627-0.079-1.117-0.378-1.461-0.912c-0.055-1.308,0.719-2.464,0.688-3.767C137.634,80.823,137.817,80.739,138.156,81.109z"/>
			<path fill="#2E2705" d="M145.313,86.677c0.955-0.156,1.917-0.282,2.863-0.479c0.594-0.123,1.204-0.172,1.721-0.625
				c0.534-0.468,0.967-0.079,1.462,0.434c-1.9,0.128-3.52,0.934-5.293,0.899C145.87,86.651,145.566,86.748,145.313,86.677z"/>
			<path fill="#EC9877" d="M153.584,91.58c-0.527,1.386-1.248,2.71-1.232,4.261c0.003,0.341-0.19,0.671-0.62,0.718
				C151.876,94.723,152.21,92.958,153.584,91.58z"/>
			<path fill="#C94121" d="M158.964,97.49c0.22,0.387-0.001,0.542-0.337,0.629c-0.258,0.067-0.351-0.087-0.336-0.303
				c0.035-0.519,0.445-0.242,0.693-0.31C158.984,97.506,158.964,97.49,158.964,97.49z"/>
			<path fill="#F8E290" d="M139.533,59.608c-0.138,2.41-0.072,4.826-0.177,7.239c-0.051,1.163-0.927,2.492,0.263,3.615
				c0.151,0.142-0.145,0.328-0.31,0.405c-0.396,0.184-0.762,0.392-0.953,0.812c-0.083,0.104-0.165,0.207-0.248,0.311
				c-0.178,0.055-0.408,0.206-0.523,0.144c-0.262-0.141-0.155-0.464-0.015-0.594c1.486-1.383,1.093-3.238,1.229-4.939
				c0.139-1.74,0.141-3.491,0.203-5.236c-0.121-0.695-0.109-1.39-0.007-2.085c0.031-0.076,0.062-0.151,0.093-0.227
				C139.236,59.238,139.384,59.423,139.533,59.608z"/>
			<path fill="#DEAA27" d="M147.492,60.007c-1.348,0.687-1.127-0.753-1.635-1.206c0.261-0.677,0.438-0.347,0.73,0.012
				C146.904,59.201,146.784,59.925,147.492,60.007z"/>
			<path fill="#DDAC25" d="M153.872,61.82c-0.831-0.234-0.541-1.154-0.993-1.62c0.093-0.259,0.25-0.528,0.528-0.5
				c0.29,0.03,0.172,0.365,0.212,0.563C153.721,60.778,153.79,61.3,153.872,61.82z"/>
			<path fill="#E8D27D" d="M141.396,58.81c-0.021,0.646-0.048,1.29-0.753,1.619C140.759,59.827,140.921,59.246,141.396,58.81z"/>
			<path fill="#FEFEFE" d="M142.353,75.496c0.528-1.986,1.63-3.371,3.801-3.648c0.909-0.116,1.717,0.164,2.493,0.594
				c-0.14,0.512-0.025,0.962,0.232,1.427c1.004,1.817,1.049,3.546-0.605,5.047c-0.296,0.269-0.343,0.581-0.329,0.936
				c-2.633,0.884-4.644-0.369-5.606-3.494C142.069,76.067,142.065,75.779,142.353,75.496z"/>
			<path fill="#FDFDFD" d="M136.267,74.825c0.367-1.048,0.949-1.945,1.851-2.615c0.988-0.328,1.97-0.744,3.022-0.233
				c-0.144,0.48-0.023,0.857,0.352,1.211c0.444,0.419,0.84,0.899,0.617,1.596c0.008,0.145,0.016,0.29,0.023,0.435
				c0.12,0.542,0.104,1.085,0.01,1.629c0.067,0.335,0.134,0.671,0.224,1.12c-0.753,0.099-1.454-0.026-2.161-0.101
				c-0.725-0.077-1.549-0.384-2.16,0.05c-0.842,0.597-1.054,0.041-1.346-0.503C136.265,76.604,136.184,75.726,136.267,74.825z"/>
			<path fill="#EFECEB" d="M147.945,79.853c-0.099-0.252-1.093-0.13-0.268-0.779c2.165-1.704,2.02-3.296,0.674-5.575
				c-0.355-0.602-0.28-0.836,0.295-1.057c1.531,0.842,2.208,2.2,2.057,3.872C150.549,78.021,149.651,79.287,147.945,79.853z"/>
			<path fill="#F0DC93" d="M143.012,78.904c-1.159,0.112-2.307,0.133-3.465-0.1c-0.902-0.182-1.736-0.061-1.941,1.088
				c-0.291-1.049,0.267-1.876,1.315-1.789c1.153,0.096,2.297,0.285,3.46,0.227C142.776,78.31,142.871,78.636,143.012,78.904z"/>
			<path fill="#EDE9E9" d="M142.109,74.784c-0.088-0.803-0.64-1.314-1.196-1.788c-0.627-0.535-0.327-0.786,0.227-1.019
				C142.988,72.722,143.027,72.835,142.109,74.784z"/>
			<path fill="#463809" d="M139.508,81.086c0.474-0.017,0.967-0.169,1.586,0.239c-0.817,0.326-1.446,0.309-2.081,0.005
				C139.192,81.278,139.406,81.297,139.508,81.086z"/>
			<path fill="#030303" d="M142.143,76.848c-0.124-0.542-0.141-1.085-0.01-1.629c0.073,0.092,0.147,0.185,0.22,0.277
				c-0.005,0.288-0.009,0.575-0.014,0.863C142.274,76.522,142.208,76.685,142.143,76.848z"/>
			<path fill="#86C2E9" d="M144.721,123.253c-1.167,1.061-2.612,1.835-3.391,3.295c-0.307-0.02-0.757-0.045-0.468-0.48
				C141.794,124.667,142.947,123.521,144.721,123.253z"/>
			<path fill="#0093C6" d="M155.698,128.459c-0.187-1.159-0.676-2.297-0.243-3.499c0.523-0.103,1.112-0.81,1.55-0.193
				c0.6,0.846,1.073,1.84,1,2.931c-0.031,0.454-0.583,0.42-0.94,0.521C156.618,128.345,156.181,128.536,155.698,128.459z"/>
			<path fill="#DFDBD9" d="M155.452,124.432c-0.33-0.64-0.789-1.01-1.574-0.886c-0.328,0.052-0.708,0.073-0.996-0.206
				c1.107-0.005,2.25,0.24,3.256-0.466c0.402-0.282,0.577,0.038,0.699,0.306c0.141,0.31,0.28,0.681-0.182,0.887
				C156.271,124.239,155.894,124.446,155.452,124.432z"/>
			<path fill="#040402" d="M138.994,59.28c0.002,0.695,0.005,1.39,0.007,2.085C138.745,60.671,138.754,59.976,138.994,59.28z"/>
			<path fill="#FDD31D" d="M154.299,80.416c-0.081-0.168-0.161-0.336-0.242-0.504c0.275-0.262,0.594-0.27,0.933-0.162
				c-0.007,0.237-0.014,0.474-0.02,0.712C154.736,80.594,154.511,80.597,154.299,80.416z"/>
			<path fill="#FDD31D" d="M154.265,85.763c-0.388-0.195-0.527-0.521-0.404-0.919c0.055-0.18,0.242-0.066,0.372-0.022
				C154.244,85.137,154.254,85.45,154.265,85.763z"/>
			<path fill="#06212D" d="M150.751,109.187c0.111,0.839-0.203,1.719,0.244,2.525c0.12,0.394,0.24,0.787,0.359,1.181
				C150.311,112.407,149.935,110.097,150.751,109.187z"/>
			<path fill="#070A0A" d="M156.113,110.884c0.272-0.015,0.545-0.029,0.817-0.044c0.089,0.032,0.297,0.108,0.147,0.165
				C156.768,111.123,156.407,111.138,156.113,110.884z"/>
			<path fill="#FEEC89" d="M152.001,117.221c0.753,1.695,0.3,3.467,0.315,5.208c0,0.045-0.191,0.092-0.293,0.139
				C151.872,120.786,151.916,119.004,152.001,117.221z"/>
			<path fill="#312807" d="M154.299,80.416c0.224,0.015,0.447,0.03,0.671,0.045c-0.008,0.212,1.068,0.391,0.013,0.644
				c-0.408,0.098,0.208,0.628-0.362,0.733C154.984,81.253,152.552,81.447,154.299,80.416z"/>
			<path fill="#191919" d="M147.5,75.424c0.394-0.003,0.569,0.253,0.561,0.588c-0.008,0.339-0.216,0.586-0.591,0.574
				c-0.372-0.012-0.564-0.264-0.556-0.607C146.921,75.635,147.104,75.397,147.5,75.424z"/>
			<path fill="#0F0F0F" d="M139.833,76.351c-0.333-0.084-0.569-0.255-0.557-0.634c0.013-0.391,0.26-0.551,0.616-0.538
				c0.366,0.013,0.581,0.212,0.556,0.597C140.424,76.149,140.181,76.308,139.833,76.351z"/>
		</g>
	</g>
</g>
<path fill="none" stroke="#13110C" stroke-width="5" d="M189.725,93.042c0-9.027-9.754-15.581-18.487-15.581
	c-8.732,0-18.476,6.668-18.476,15.581"/>
</svg>
